<svg xmlns="http://www.w3.org/2000/svg" width="360" height="28" viewBox="0 0 360 28"><g fill="#fff"><path d="M1.6 21h1.52V8.34L6.7 20.98h1.54l3.6-12.64V21h1.52V7H10.8L7.52 18.92 4.18 7H1.6ZM18.56 21.2c1.26 0 2.08-.54 2.52-1.28.06.72.54 1.08 1.42 1.08h.78v-1.2h-.4c-.4 0-.44-.18-.44-.42v-5.32c0-1.38-.8-2.56-3.12-2.56-1.38 0-2.2.38-2.76.92-.34.32-.58.74-.7 1.26l1.22.54c.12-.74.52-1.54 2.16-1.54 1.08 0 1.78.44 1.78 1.42 0 .8-.4 1.06-1.1 1.2l-1.76.34c-1.18.22-2.54.86-2.54 2.76 0 1.74 1.14 2.8 2.94 2.8m.3-1.18c-.78 0-1.78-.32-1.78-1.62v-.04c0-1.06.62-1.42 1.54-1.62l1.24-.26c.64-.14.98-.28 1.16-.54v1.52c0 .72-.1 2.56-2.16 2.56M24.74 24.72h1.22c.92 0 1.44-.42 1.7-1.24L31.3 11.7h-1.48l-2 6.96-2.12-6.96h-1.54l2.94 8.94-.64 2.2c-.12.42-.28.7-.82.7h-.9Z"/><path/><path d="M39 9.72V21h1.44V7.3h-1.52c-.08 1.14-.86 2.56-2.9 2.98v1.38c1.08-.22 2.36-.82 2.98-1.94M47 21.24c3.52 0 4.98-2.82 4.98-7.4 0-2.42-.36-4.14-1.3-5.28-.78-.92-1.84-1.54-3.32-1.54-2.9 0-4.42 2.3-4.42 4.8 0 2.52 1.54 4.56 4.22 4.56 1.48 0 2.72-.76 3.3-1.82-.24 3.78-1.22 5.32-3.44 5.32-.74 0-2.2-.28-2.3-2.1H43.2c.18 2.8 2.42 3.46 3.8 3.46m.36-6.14c-1.48 0-2.9-.98-2.9-3.32 0-2.38 1.4-3.46 2.88-3.46 1.6 0 2.94 1.26 2.94 3.4 0 2.18-1.26 3.38-2.92 3.38M56.92 21.1c.5 0 .92-.1 1.26-.2v-1.24c-.6.22-1.86.4-1.86-.74v-6.04h1.92V11.7h-1.92V8.78H54.9v2.92h-1.52v1.18h1.52v6.34c0 1.42 1 1.88 2.02 1.88M60.24 21h1.42v-5.8c0-1.78.96-2.46 2.04-2.46 1.4 0 1.82.86 1.82 2.1V21h1.42v-6.44c0-1.92-1.12-3.06-2.86-3.06-1.16 0-1.98.56-2.42 1.24V7h-1.42Z"/><path/><path d="M73.42 19.28V21h8.2v-1.4h-6.7c3.06-1.98 6.62-5.3 6.62-8.66 0-2.26-1.48-3.92-4.16-3.92-3.1 0-4.56 2.2-4.18 4.82h1.52c-.34-1.88.58-3.46 2.66-3.46 1.66 0 2.64 1 2.64 2.7 0 3.26-4.42 6.72-6.6 8.2M87.98 21.24c2.96 0 4.44-2.84 4.44-7.14 0-4.28-1.48-7.08-4.44-7.08s-4.42 2.8-4.42 7.08c0 4.3 1.46 7.14 4.42 7.14m0-1.42c-1.78 0-2.88-1.68-2.88-5.72 0-4 1.1-5.66 2.88-5.66 1.8 0 2.9 1.66 2.9 5.66 0 4.04-1.1 5.72-2.9 5.72M94.54 19.28V21h8.2v-1.4h-6.7c3.06-1.98 6.62-5.3 6.62-8.66 0-2.26-1.48-3.92-4.16-3.92-3.1 0-4.56 2.2-4.18 4.82h1.52c-.34-1.88.58-3.46 2.66-3.46 1.66 0 2.64 1 2.64 2.7 0 3.26-4.42 6.72-6.6 8.2M109.32 21.24c2.9 0 4.42-2.3 4.42-4.8 0-2.52-1.54-4.56-4.22-4.56-1.48 0-2.72.76-3.3 1.82.24-3.78 1.22-5.32 3.44-5.32.74 0 2.2.28 2.3 2.1h1.52c-.18-2.8-2.42-3.46-3.8-3.46-3.52 0-4.98 2.82-4.98 7.4 0 2.42.36 4.14 1.3 5.28.78.92 1.84 1.54 3.32 1.54m.02-1.3c-1.6 0-2.94-1.26-2.94-3.4 0-2.18 1.26-3.38 2.92-3.38 1.48 0 2.9.98 2.9 3.32 0 2.38-1.4 3.46-2.88 3.46"/><path/><path d="M120.32 15.18h2.82V12.3h-2.82Z"/><path/><path d="M128.76 21h1.54l1.24-4.12h5.02l1.26 4.12h1.64l-4.42-14h-1.9Zm3.18-5.44 2.08-6.96 2.14 6.96ZM141.22 21h1.42v-6.08c0-1.56.9-2.18 1.84-2.18 1.32 0 1.6 1.08 1.6 2.08V21h1.42v-6.08c0-1.56.9-2.18 1.84-2.18 1.32 0 1.62.94 1.62 2.06V21h1.42v-6.72c0-1.78-1.06-2.78-2.64-2.78-1.04 0-2.06.46-2.58 1.62-.34-1.16-1.22-1.62-2.28-1.62-.9 0-1.74.4-2.22 1.26V11.7h-1.44ZM157.76 21.2c2.16 0 3.34-1.22 3.34-2.78 0-1.38-.68-2.18-2.28-2.66l-1.54-.46c-1.04-.32-1.22-.82-1.22-1.32 0-.78.68-1.3 1.7-1.3 1.36 0 1.76.76 1.8 1.56l1.3-.46c-.26-1.94-1.84-2.28-3.02-2.28-1.9 0-3.2 1.04-3.2 2.64 0 1.2.6 2.02 1.94 2.44l1.86.56c.86.26 1.22.66 1.22 1.42 0 .86-.74 1.42-1.9 1.42-1.58 0-2-1.04-2.02-1.9l-1.4.3c.06 1.32.9 2.82 3.42 2.82M165.76 21.1c.5 0 .92-.1 1.26-.2v-1.24c-.6.22-1.86.4-1.86-.74v-6.04h1.92V11.7h-1.92V8.78h-1.42v2.92h-1.52v1.18h1.52v6.34c0 1.42 1 1.88 2.02 1.88M172.28 21.22c1.82 0 3.14-1 3.58-2.8l-1.32-.4c-.22 1.22-1.02 1.88-2.22 1.88-1.56 0-2.4-1.2-2.44-3.42h6.06c.06-2.72-.9-4.98-3.58-4.98-2.44 0-3.94 1.82-3.94 4.92 0 2.96 1.4 4.8 3.86 4.8m-2.34-5.92c.24-1.68 1.08-2.58 2.4-2.58 1.12 0 1.98.7 2.08 2.58ZM178.12 21h1.42v-5.24c0-1.88.78-2.98 2.74-2.66v-1.52c-1.16-.12-2.24.48-2.74 1.56V11.7h-1.42ZM186.88 21.2c1.04 0 2.06-.46 2.48-1.5V21h1.42V7h-1.42v5.92c-.46-1-1.38-1.42-2.36-1.42-2.24 0-3.64 1.7-3.64 4.94 0 3.02 1.2 4.76 3.52 4.76m.14-1.26c-1.48 0-2.2-1.2-2.2-3.56 0-2.56.86-3.62 2.34-3.62 1.54 0 2.22 1.28 2.22 3.64 0 2.4-.82 3.54-2.36 3.54M195.82 21.2c1.26 0 2.08-.54 2.52-1.28.06.72.54 1.08 1.42 1.08h.78v-1.2h-.4c-.4 0-.44-.18-.44-.42v-5.32c0-1.38-.8-2.56-3.12-2.56-1.38 0-2.2.38-2.76.92-.34.32-.58.74-.7 1.26l1.22.54c.12-.74.52-1.54 2.16-1.54 1.08 0 1.78.44 1.78 1.42 0 .8-.4 1.06-1.1 1.2l-1.76.34c-1.18.22-2.54.86-2.54 2.76 0 1.74 1.14 2.8 2.94 2.8m.3-1.18c-.78 0-1.78-.32-1.78-1.62v-.04c0-1.06.62-1.42 1.54-1.62l1.24-.26c.64-.14.98-.28 1.16-.54v1.52c0 .72-.1 2.56-2.16 2.56M202.5 21h1.42v-6.08c0-1.56.9-2.18 1.84-2.18 1.32 0 1.6 1.08 1.6 2.08V21h1.42v-6.08c0-1.56.9-2.18 1.84-2.18 1.32 0 1.62.94 1.62 2.06V21h1.42v-6.72c0-1.78-1.06-2.78-2.64-2.78-1.04 0-2.06.46-2.58 1.62-.34-1.16-1.22-1.62-2.28-1.62-.9 0-1.74.4-2.22 1.26V11.7h-1.44Z"/></g></svg>