<svg xmlns="http://www.w3.org/2000/svg" width="242" height="28" viewBox="0 0 242 28"><g fill="#fff"><path d="M1.04 18.9V21h8.82v-1.98H3.68c3.02-1.9 6.12-4.76 6.12-7.9 0-2.3-1.56-4.1-4.54-4.1-3.22 0-4.96 2.2-4.44 5.02H3c-.38-1.6.36-3.08 2.22-3.08 1.48 0 2.32.92 2.32 2.36 0 2.76-3.52 5.66-6.5 7.58M16.02 21.24c3.36 0 4.96-2.34 4.96-5s-1.62-4.56-4.28-4.56c-1.22 0-2.2.4-2.86 1.1l.22-3.46h5.9v-2h-7.7L11.82 15h2.12c.3-.94 1.08-1.56 2.28-1.56 1.44 0 2.44 1 2.44 2.9 0 1.6-.72 2.98-2.58 2.98-1.6 0-2.42-1.14-2.36-2.42h-2.24c-.14 2.4 1.56 4.34 4.54 4.34M26 18.86h1.84v-3.52h3.52v-1.8h-3.52v-3.5H26v3.5h-3.5v1.8H26Z"/><path/></g><g fill="#fff"><path d="M40.66 21.18c1.84 0 3.16-.98 3.58-2.78l-1.32-.4c-.18 1.22-1 1.9-2.18 1.9-1.58 0-2.48-1.12-2.48-3.54 0-2.4.94-3.6 2.52-3.6 1.12 0 1.76.64 2 2l1.4-.3c-.32-2.08-1.6-2.96-3.38-2.96-2.36 0-4 1.64-4 4.92 0 3.06 1.48 4.76 3.86 4.76M48.66 21.2c1.26 0 2.08-.54 2.52-1.28.06.72.54 1.08 1.42 1.08h.78v-1.2h-.4c-.4 0-.44-.18-.44-.42v-5.32c0-1.38-.8-2.56-3.12-2.56-1.38 0-2.2.38-2.76.92-.34.32-.58.74-.7 1.26l1.22.54c.12-.74.52-1.54 2.16-1.54 1.08 0 1.78.44 1.78 1.42 0 .8-.4 1.06-1.1 1.2l-1.76.34c-1.18.22-2.54.86-2.54 2.76 0 1.74 1.14 2.8 2.94 2.8m.3-1.18c-.78 0-1.78-.32-1.78-1.62v-.04c0-1.06.62-1.42 1.54-1.62l1.24-.26c.64-.14.98-.28 1.16-.54v1.52c0 .72-.1 2.56-2.16 2.56M58.08 21.2c2.16 0 3.34-1.22 3.34-2.78 0-1.38-.68-2.18-2.28-2.66l-1.54-.46c-1.04-.32-1.22-.82-1.22-1.32 0-.78.68-1.3 1.7-1.3 1.36 0 1.76.76 1.8 1.56l1.3-.46c-.26-1.94-1.84-2.28-3.02-2.28-1.9 0-3.2 1.04-3.2 2.64 0 1.2.6 2.02 1.94 2.44l1.86.56c.86.26 1.22.66 1.22 1.42 0 .86-.74 1.42-1.9 1.42-1.58 0-2-1.04-2.02-1.9l-1.4.3c.06 1.32.9 2.82 3.42 2.82M66.86 21.22c1.82 0 3.14-1 3.58-2.8l-1.32-.4c-.22 1.22-1.02 1.88-2.22 1.88-1.56 0-2.4-1.2-2.44-3.42h6.06c.06-2.72-.9-4.98-3.58-4.98-2.44 0-3.94 1.82-3.94 4.92 0 2.96 1.4 4.8 3.86 4.8m-2.34-5.92c.24-1.68 1.08-2.58 2.4-2.58 1.12 0 1.98.7 2.08 2.58Z"/><path/><path d="M79.52 21.2c2.16 0 3.34-1.22 3.34-2.78 0-1.38-.68-2.18-2.28-2.66l-1.54-.46c-1.04-.32-1.22-.82-1.22-1.32 0-.78.68-1.3 1.7-1.3 1.36 0 1.76.76 1.8 1.56l1.3-.46c-.26-1.94-1.84-2.28-3.02-2.28-1.9 0-3.2 1.04-3.2 2.64 0 1.2.6 2.02 1.94 2.44l1.86.56c.86.26 1.22.66 1.22 1.42 0 .86-.74 1.42-1.9 1.42-1.58 0-2-1.04-2.02-1.9l-1.4.3c.06 1.32.9 2.82 3.42 2.82M87.52 21.1c.5 0 .92-.1 1.26-.2v-1.24c-.6.22-1.86.4-1.86-.74v-6.04h1.92V11.7h-1.92V8.78H85.5v2.92h-1.52v1.18h1.52v6.34c0 1.42 1 1.88 2.02 1.88M93.52 21.2c1.08 0 1.96-.54 2.38-1.26V21h1.44v-9.3h-1.42v5.78c0 1.82-.94 2.48-1.98 2.48-1.42 0-1.78-.92-1.78-2.1V11.7h-1.42v6.46c0 1.82 1.06 3.04 2.78 3.04M103.08 21.2c1.04 0 2.06-.46 2.48-1.5V21h1.42V7h-1.42v5.92c-.46-1-1.38-1.42-2.36-1.42-2.24 0-3.64 1.7-3.64 4.94 0 3.02 1.2 4.76 3.52 4.76m.14-1.26c-1.48 0-2.2-1.2-2.2-3.56 0-2.56.86-3.62 2.34-3.62 1.54 0 2.22 1.28 2.22 3.64 0 2.4-.82 3.54-2.36 3.54M109.7 21h1.42v-9.3h-1.42Zm-.02-11.02h1.42V7.66h-1.42ZM117.18 21.22c1.82 0 3.14-1 3.58-2.8l-1.32-.4c-.22 1.22-1.02 1.88-2.22 1.88-1.56 0-2.4-1.2-2.44-3.42h6.06c.06-2.72-.9-4.98-3.58-4.98-2.44 0-3.94 1.82-3.94 4.92 0 2.96 1.4 4.8 3.86 4.8m-2.34-5.92c.24-1.68 1.08-2.58 2.4-2.58 1.12 0 1.98.7 2.08 2.58ZM125.76 21.2c2.16 0 3.34-1.22 3.34-2.78 0-1.38-.68-2.18-2.28-2.66l-1.54-.46c-1.04-.32-1.22-.82-1.22-1.32 0-.78.68-1.3 1.7-1.3 1.36 0 1.76.76 1.8 1.56l1.3-.46c-.26-1.94-1.84-2.28-3.02-2.28-1.9 0-3.2 1.04-3.2 2.64 0 1.2.6 2.02 1.94 2.44l1.86.56c.86.26 1.22.66 1.22 1.42 0 .86-.74 1.42-1.9 1.42-1.58 0-2-1.04-2.02-1.9l-1.4.3c.06 1.32.9 2.82 3.42 2.82"/></g></svg>